<svg width="21" height="20" viewBox="0 0 21 20" fill="none" xmlns="http://www.w3.org/2000/svg">
<path d="M20.4999 14.9201V17.9201C20.5011 18.1986 20.444 18.4743 20.3325 18.7294C20.2209 18.9846 20.0572 19.2137 19.852 19.402C19.6468 19.5902 19.4045 19.7336 19.1407 19.8228C18.8769 19.912 18.5973 19.9452 18.3199 19.9201C15.2428 19.5857 12.2869 18.5342 9.68994 16.8501C7.27376 15.3148 5.22527 13.2663 3.68993 10.8501C1.99991 8.2413 0.948176 5.27109 0.619933 2.1801C0.594944 1.90356 0.627808 1.62486 0.716434 1.36172C0.805059 1.09859 0.947504 0.856786 1.1347 0.651718C1.32189 0.44665 1.54974 0.282806 1.80372 0.170619C2.05771 0.0584315 2.33227 0.000358432 2.60993 9.69523e-05H5.60994C6.09524 -0.00467949 6.56573 0.167176 6.9337 0.48363C7.30167 0.800084 7.54201 1.23954 7.60994 1.7201C7.73656 2.68016 7.97139 3.62282 8.30994 4.5301C8.44448 4.88802 8.4736 5.27701 8.39384 5.65098C8.31409 6.02494 8.1288 6.36821 7.85994 6.6401L6.58994 7.9101C8.01349 10.4136 10.0864 12.4865 12.5899 13.9101L13.8599 12.6401C14.1318 12.3712 14.4751 12.1859 14.8491 12.1062C15.223 12.0264 15.612 12.0556 15.9699 12.1901C16.8772 12.5286 17.8199 12.7635 18.7799 12.8901C19.2657 12.9586 19.7093 13.2033 20.0265 13.5776C20.3436 13.9519 20.5121 14.4297 20.4999 14.9201Z" fill="#15B2F5"/>
</svg>
