<svg width="180" height="36" viewBox="0 0 180 36" fill="none" xmlns="http://www.w3.org/2000/svg">
<path d="M16.0435 6.02106C16.6593 4.12579 19.3406 4.12579 19.9564 6.02106L21.5794 11.0159C21.8548 11.8635 22.6446 12.4374 23.5358 12.4374H28.7878C30.7806 12.4374 31.6091 14.9875 29.9969 16.1588L25.748 19.2458C25.027 19.7696 24.7253 20.6982 25.0007 21.5458L26.6237 26.5406C27.2395 28.4359 25.0703 30.0119 23.458 28.8406L19.2091 25.7536C18.4881 25.2298 17.5118 25.2298 16.7908 25.7536L12.5419 28.8406C10.9297 30.0119 8.7605 28.4359 9.37631 26.5406L10.9992 21.5458C11.2746 20.6982 10.973 19.7696 10.2519 19.2458L6.00305 16.1588C4.39084 14.9875 5.21941 12.4374 7.21221 12.4374H12.4641C13.3553 12.4374 14.1452 11.8635 14.4206 11.0159L16.0435 6.02106Z" fill="#FFA928"/>
<path d="M52.0435 6.02106C52.6593 4.12579 55.3406 4.12579 55.9564 6.02106L57.5794 11.0159C57.8548 11.8635 58.6446 12.4374 59.5358 12.4374H64.7878C66.7806 12.4374 67.6091 14.9875 65.9969 16.1588L61.748 19.2458C61.027 19.7696 60.7253 20.6982 61.0007 21.5458L62.6237 26.5406C63.2395 28.4359 61.0703 30.0119 59.458 28.8406L55.2091 25.7536C54.4881 25.2298 53.5118 25.2298 52.7908 25.7536L48.5419 28.8406C46.9297 30.0119 44.7605 28.4359 45.3763 26.5406L46.9992 21.5458C47.2746 20.6982 46.973 19.7696 46.2519 19.2458L42.0031 16.1588C40.3908 14.9875 41.2194 12.4374 43.2122 12.4374H48.4641C49.3553 12.4374 50.1452 11.8635 50.4206 11.0159L52.0435 6.02106Z" fill="#FFA928"/>
<path d="M88.0435 6.02106C88.6593 4.12579 91.3406 4.12579 91.9564 6.02106L93.5794 11.0159C93.8548 11.8635 94.6446 12.4374 95.5358 12.4374H100.788C102.781 12.4374 103.609 14.9875 101.997 16.1588L97.748 19.2458C97.027 19.7696 96.7253 20.6982 97.0007 21.5458L98.6237 26.5406C99.2395 28.4359 97.0703 30.0119 95.458 28.8406L91.2091 25.7536C90.4881 25.2298 89.5118 25.2298 88.7908 25.7536L84.5419 28.8406C82.9297 30.0119 80.7605 28.4359 81.3763 26.5406L82.9992 21.5458C83.2746 20.6982 82.973 19.7696 82.2519 19.2458L78.0031 16.1588C76.3908 14.9875 77.2194 12.4374 79.2122 12.4374H84.4641C85.3553 12.4374 86.1452 11.8635 86.4206 11.0159L88.0435 6.02106Z" fill="#FFA928"/>
<path d="M124.044 6.02106C124.659 4.12579 127.341 4.12579 127.956 6.02106L129.579 11.0159C129.855 11.8635 130.645 12.4374 131.536 12.4374H136.788C138.781 12.4374 139.609 14.9875 137.997 16.1588L133.748 19.2458C133.027 19.7696 132.725 20.6982 133.001 21.5458L134.624 26.5406C135.239 28.4359 133.07 30.0119 131.458 28.8406L127.209 25.7536C126.488 25.2298 125.512 25.2298 124.791 25.7536L120.542 28.8406C118.93 30.0119 116.761 28.4359 117.376 26.5406L118.999 21.5458C119.275 20.6982 118.973 19.7696 118.252 19.2458L114.003 16.1588C112.391 14.9875 113.219 12.4374 115.212 12.4374H120.464C121.355 12.4374 122.145 11.8635 122.421 11.0159L124.044 6.02106Z" fill="#FFA928"/>
<path d="M160.044 6.02106C160.659 4.12579 163.341 4.12579 163.956 6.02106L165.579 11.0159C165.855 11.8635 166.645 12.4374 167.536 12.4374H172.788C174.781 12.4374 175.609 14.9875 173.997 16.1588L169.748 19.2458C169.027 19.7696 168.725 20.6982 169.001 21.5458L170.624 26.5406C171.239 28.4359 169.07 30.0119 167.458 28.8406L163.209 25.7536C162.488 25.2298 161.512 25.2298 160.791 25.7536L156.542 28.8406C154.93 30.0119 152.761 28.4359 153.376 26.5406L154.999 21.5458C155.275 20.6982 154.973 19.7696 154.252 19.2458L150.003 16.1588C148.391 14.9875 149.219 12.4374 151.212 12.4374H156.464C157.355 12.4374 158.145 11.8635 158.421 11.0159L160.044 6.02106Z" fill="#E3E6F0"/>
</svg>
