<svg width="48" height="48" viewBox="0 0 48 48" fill="none" xmlns="http://www.w3.org/2000/svg">
<rect width="48" height="48" rx="24" fill="#1F3584"/>
<path d="M22.5752 14.9463C23.3586 14.151 24.6414 14.151 25.4248 14.9463L26.4681 16.0053C26.8477 16.3906 27.367 16.6058 27.9078 16.6017L29.3945 16.5906C30.5108 16.5822 31.4178 17.4892 31.4094 18.6055L31.3983 20.0922C31.3942 20.633 31.6094 21.1523 31.9947 21.5319L33.0537 22.5752C33.849 23.3586 33.849 24.6414 33.0537 25.4248L31.9947 26.4681C31.6094 26.8477 31.3942 27.367 31.3983 27.9078L31.4094 29.3945C31.4178 30.5108 30.5108 31.4178 29.3945 31.4094L27.9078 31.3983C27.367 31.3942 26.8477 31.6094 26.4681 31.9947L25.4248 33.0537C24.6414 33.849 23.3586 33.849 22.5752 33.0537L21.5319 31.9947C21.1523 31.6094 20.633 31.3942 20.0921 31.3983L18.6055 31.4094C17.4892 31.4178 16.5822 30.5108 16.5906 29.3945L16.6017 27.9078C16.6058 27.367 16.3906 26.8477 16.0053 26.4681L14.9463 25.4248C14.151 24.6414 14.151 23.3586 14.9463 22.5752L16.0053 21.5319C16.3906 21.1523 16.6058 20.633 16.6017 20.0922L16.5906 18.6055C16.5822 17.4892 17.4892 16.5822 18.6055 16.5906L20.0922 16.6017C20.633 16.6058 21.1523 16.3906 21.5319 16.0053L22.5752 14.9463Z" stroke="white" stroke-width="2"/>
<path d="M28 22L23.625 26L21 24.1176" stroke="white" stroke-width="2" stroke-linecap="round" stroke-linejoin="round"/>
</svg>
