<svg width="26" height="26" viewBox="0 0 26 26" fill="none" xmlns="http://www.w3.org/2000/svg">
<path d="M11.0435 2.02106C11.6593 0.125794 14.3406 0.125791 14.9564 2.02106L16.5794 7.01594C16.8548 7.86353 17.6446 8.43739 18.5358 8.43739H23.7878C25.7806 8.43739 26.6091 10.9875 24.9969 12.1588L20.748 15.2458C20.027 15.7696 19.7253 16.6982 20.0007 17.5458L21.6237 22.5406C22.2395 24.4359 20.0703 26.0119 18.458 24.8406L14.2091 21.7536C13.4881 21.2298 12.5118 21.2298 11.7908 21.7536L7.54193 24.8406C5.92972 26.0119 3.7605 24.4359 4.37631 22.5406L5.99925 17.5458C6.27465 16.6982 5.97295 15.7696 5.25195 15.2458L1.00305 12.1588C-0.60916 10.9875 0.219406 8.43739 2.21221 8.43739H7.46414C8.35534 8.43739 9.1452 7.86353 9.4206 7.01594L11.0435 2.02106Z" fill="#FFA928"/>
</svg>
