<svg width="64" height="64" viewBox="0 0 64 64" fill="none" xmlns="http://www.w3.org/2000/svg">
<rect width="64" height="64" rx="20" fill="#142257"/>
<path d="M46.721 14.959H43.1954C42.9727 14.959 42.7696 15.0847 42.6698 15.2838L39.6698 21.2841L36.6698 15.2838C36.5699 15.0847 36.3668 14.959 36.1441 14.959H23.2168C22.892 14.959 22.6292 15.2221 22.6292 15.5466V30.9291L17.0688 27.3905C16.8369 27.2433 16.5328 27.2755 16.3377 27.4708L13.3997 30.4089C13.1799 30.6289 13.169 30.9821 13.3761 31.2148L22.6292 41.6247V48.4525C22.6292 48.777 22.892 49.0401 23.2168 49.0401H29.6805V39.6384C29.6805 39.3139 29.9433 39.0508 30.2681 39.0508C30.5929 39.0508 30.8557 39.3139 30.8557 39.6384V49.0401H46.721C47.0458 49.0401 47.3086 48.777 47.3086 48.4525V15.5466C47.3086 15.2221 47.0458 14.959 46.721 14.959ZM30.8557 36.1128C30.8557 36.4373 30.5929 36.7004 30.2681 36.7004C29.9433 36.7004 29.6805 36.4373 29.6805 36.1128V34.9376C29.6805 34.6131 29.9433 34.35 30.2681 34.35C30.5929 34.35 30.8557 34.6131 30.8557 34.9376V36.1128Z" fill="white"/>
</svg>
