<svg width="64" height="64" viewBox="0 0 64 64" fill="none" xmlns="http://www.w3.org/2000/svg">
<rect width="64" height="64" rx="20" fill="#142257"/>
<path d="M40.6798 19.9547C40.1228 20.5341 39.8191 21.3107 39.8355 22.1136C39.8697 23.7856 41.2549 25.1134 42.9294 25.0793C43.7335 25.0629 44.4981 24.7282 45.0551 24.1488L49.0855 19.9566C49.8824 21.5389 50.1685 23.329 49.9043 25.0804C49.6401 26.8318 48.8387 28.4584 47.6103 29.7361C46.3819 31.0138 44.7871 31.8798 43.0454 32.2149C41.3036 32.55 39.5007 32.3376 37.8849 31.6071C35.7516 30.0192 34.8051 29.0993 33.5095 27.413C32.7126 25.8307 32.4265 24.0405 32.6907 22.2891C32.9549 20.5377 33.7564 18.9112 34.9847 17.6335C36.2131 16.3558 37.808 15.4898 39.5497 15.1547C41.2914 14.8196 43.0943 15.0319 44.7102 15.7625L40.6798 19.9547Z" fill="white"/>
<path d="M25.6158 35.7865L30.0138 39.9566L23.4846 46.8827C22.9276 47.462 22.1629 47.7967 21.3588 47.8131C20.5547 47.8295 19.777 47.5263 19.1968 46.9701C18.6166 46.4139 18.2814 45.6504 18.265 44.8474C18.2486 44.0445 18.5522 43.2679 19.1092 42.6886L25.6158 35.7865Z" fill="white"/>
<path d="M31.1656 28.3031L45.4581 41.8549C46.8708 43.1944 46.946 45.4181 45.6269 46.8497C44.2781 48.3136 41.99 48.3907 40.5454 47.021L26.2529 33.4692C25.0889 32.3655 24.8329 30.6618 25.5166 29.2953L18.8816 22.8991L17.6513 24.1289L14 19.2104L16.2583 16.7162L21.5381 20.244L20.3177 21.4638L26.9038 27.8128C28.2384 27.0304 29.9841 27.1828 31.1656 28.3031Z" fill="white"/>
</svg>
