<svg width="64" height="64" viewBox="0 0 64 64" fill="none" xmlns="http://www.w3.org/2000/svg">
<rect width="64" height="64" rx="20" fill="#142257"/>
<path d="M49.5 33.25H14.5C14.1685 33.25 13.8505 33.3817 13.6161 33.6161C13.3817 33.8505 13.25 34.1685 13.25 34.5V40.75C13.252 42.7385 14.0428 44.645 15.4489 46.0511C16.855 47.4572 18.7615 48.248 20.75 48.25H22V50.75C22 51.0815 22.1317 51.3995 22.3661 51.6339C22.6005 51.8683 22.9185 52 23.25 52C23.5815 52 23.8995 51.8683 24.1339 51.6339C24.3683 51.3995 24.5 51.0815 24.5 50.75V48.25H39.5V50.75C39.5 51.0815 39.6317 51.3995 39.8661 51.6339C40.1005 51.8683 40.4185 52 40.75 52C41.0815 52 41.3995 51.8683 41.6339 51.6339C41.8683 51.3995 42 51.0815 42 50.75V48.25H43.25C45.2385 48.248 47.145 47.4572 48.5511 46.0511C49.9572 44.645 50.748 42.7385 50.75 40.75V34.5C50.75 34.1685 50.6183 33.8505 50.3839 33.6161C50.1495 33.3817 49.8315 33.25 49.5 33.25Z" fill="white"/>
<path d="M32 19.625V18.25C32 17.2554 32.3951 16.3016 33.0983 15.5983C33.8016 14.8951 34.7554 14.5 35.75 14.5C36.7446 14.5 37.6984 14.8951 38.4017 15.5983C39.1049 16.3016 39.5 17.2554 39.5 18.25V30.75H42V18.25C42 16.5924 41.3415 15.0027 40.1694 13.8306C38.9973 12.6585 37.4076 12 35.75 12C34.0924 12 32.5027 12.6585 31.3306 13.8306C30.1585 15.0027 29.5 16.5924 29.5 18.25V19.625C28.0893 19.9151 26.8217 20.6827 25.9109 21.7984C25.0001 22.9141 24.5018 24.3097 24.5 25.75C24.5 26.0815 24.6317 26.3995 24.8661 26.6339C25.1005 26.8683 25.4185 27 25.75 27H35.75C36.0815 27 36.3995 26.8683 36.6339 26.6339C36.8683 26.3995 37 26.0815 37 25.75C36.9982 24.3097 36.4999 22.9141 35.5891 21.7984C34.6783 20.6827 33.4107 19.9151 32 19.625Z" fill="white"/>
</svg>
