<svg width="48" height="48" viewBox="0 0 48 48" fill="none" xmlns="http://www.w3.org/2000/svg">
<rect width="48" height="48" rx="24" fill="#1F3584"/>
<path d="M33 22C33 27.1225 28.1804 31.7095 25.595 33.8016C24.6535 34.5634 23.3464 34.5634 22.405 33.8016C19.8196 31.7095 15 27.1225 15 22C15 19.6131 15.9482 17.3239 17.636 15.636C19.3239 13.9482 21.6131 13 24 13C26.3869 13 28.6761 13.9482 30.364 15.636C32.0518 17.3239 33 19.6131 33 22Z" stroke="white" stroke-width="2" stroke-linecap="round" stroke-linejoin="round"/>
<path d="M24 25C25.6569 25 27 23.6569 27 22C27 20.3431 25.6569 19 24 19C22.3431 19 21 20.3431 21 22C21 23.6569 22.3431 25 24 25Z" stroke="white" stroke-width="2" stroke-linecap="round" stroke-linejoin="round"/>
</svg>
