<svg width="64" height="64" viewBox="0 0 64 64" fill="none" xmlns="http://www.w3.org/2000/svg">
<rect width="64" height="64" rx="20" fill="#142257"/>
<path d="M45.3534 19.3616L41.3741 15.5514C39.91 14.1495 37.5262 14.1495 36.0622 15.5514L30.7502 20.6377L34.7295 24.4479L38.7088 20.6377L45.3534 27C46.4081 25.9855 47.0002 24.6123 47.0002 23.1808C47.0002 21.7493 46.4081 20.3761 45.3534 19.3616Z" fill="white"/>
<path d="M20.2696 34.9822C21.2955 36.0059 22.9472 36.0059 23.9557 34.9822L28.2502 30.6961L24.5642 27L20.2696 31.2861C19.2438 32.3099 19.2438 33.9584 20.2696 34.9822Z" fill="white"/>
<path d="M37.5404 24.6679L42.7145 29.6822C42.8843 29.8462 43.0191 30.041 43.111 30.2553C43.2029 30.4696 43.2502 30.6993 43.2502 30.9313C43.2502 31.1633 43.2029 31.393 43.111 31.6074C43.0191 31.8217 42.8843 32.0164 42.7145 32.1805C42.5446 32.3445 42.3429 32.4746 42.121 32.5634C41.899 32.6522 41.6612 32.6979 41.4209 32.6979C41.1807 32.6979 40.9428 32.6522 40.7209 32.5634C40.499 32.4746 40.2973 32.3445 40.1274 32.1805L23.266 48.4635C21.8348 49.8455 19.5047 49.8455 18.0736 48.4635C16.6425 47.0815 16.6425 44.8313 18.0736 43.4492L31.0454 30.9225L25.2108 25.2881C24.9534 25.0425 24.749 24.7501 24.6096 24.4277C24.4701 24.1053 24.3983 23.7594 24.3983 23.41C24.3983 23.0606 24.4701 22.7146 24.6096 22.3922C24.749 22.0698 24.9534 21.7774 25.2108 21.5318C26.275 20.4865 28.018 20.4865 29.1005 21.5495L34.9351 27.1839L37.5404 24.6679Z" fill="white"/>
</svg>
