<svg width="64" height="64" viewBox="0 0 64 64" fill="none" xmlns="http://www.w3.org/2000/svg">
<rect width="64" height="64" rx="20" fill="#142257"/>
<path d="M17 21C17 20.4477 17.4477 20 18 20H30.0816C30.6339 20 31.0816 20.4477 31.0816 21V25.7568C31.0816 26.309 30.6339 26.7568 30.0816 26.7568H18C17.4477 26.7568 17 26.309 17 25.7568V21Z" fill="white"/>
<path d="M17 30.1216C17 29.5693 17.4477 29.1216 18 29.1216H23.9592C24.5115 29.1216 24.9592 29.5693 24.9592 30.1216V34.8784C24.9592 35.4307 24.5115 35.8784 23.9592 35.8784H18C17.4477 35.8784 17 35.4307 17 34.8784V30.1216Z" fill="white"/>
<path d="M26.7959 30.1216C26.7959 29.5693 27.2436 29.1216 27.7959 29.1216H39.8776C40.4298 29.1216 40.8776 29.5693 40.8776 30.1216V34.8784C40.8776 35.4307 40.4298 35.8784 39.8776 35.8784H27.7959C27.2436 35.8784 26.7959 35.4307 26.7959 34.8784V30.1216Z" fill="white"/>
<path d="M17 39.2432C17 38.691 17.4477 38.2432 18 38.2432H30.0816C30.6339 38.2432 31.0816 38.691 31.0816 39.2432V44C31.0816 44.5523 30.6339 45 30.0816 45H18C17.4477 45 17 44.5523 17 44V39.2432Z" fill="white"/>
<path d="M32.9184 39.2432C32.9184 38.691 33.3661 38.2432 33.9184 38.2432H46C46.5523 38.2432 47 38.691 47 39.2432V44C47 44.5523 46.5523 45 46 45H33.9184C33.3661 45 32.9184 44.5523 32.9184 44V39.2432Z" fill="white"/>
</svg>
