<svg width="64" height="64" viewBox="0 0 64 64" fill="none" xmlns="http://www.w3.org/2000/svg">
<rect width="64" height="64" rx="20" fill="#142257"/>
<path d="M48.2948 21.9784H31.4752C30.9047 21.4193 30.1817 21.0412 29.3971 20.8913C28.6125 20.7415 27.8011 20.8267 27.0647 21.1361C26.3283 21.4455 25.6996 21.9655 25.2575 22.6308C24.8154 23.2961 24.5796 24.0771 24.5796 24.8759C24.5796 25.6747 24.8154 26.4557 25.2575 27.1211C25.6996 27.7864 26.3283 28.3063 27.0647 28.6158C27.8011 28.9252 28.6125 29.0104 29.3971 28.8605C30.1817 28.7107 30.9047 28.3325 31.4752 27.7735H48.2948C48.4485 27.7735 48.5959 27.7125 48.7046 27.6038C48.8133 27.4951 48.8744 27.3477 48.8744 27.194V22.5579C48.8744 22.4042 48.8133 22.2568 48.7046 22.1481C48.5959 22.0394 48.4485 21.9784 48.2948 21.9784Z" fill="white"/>
<path d="M33.6599 12.7295H22.2279C21.47 12.7295 20.743 13.0306 20.207 13.5666C19.6711 14.1026 19.37 14.8295 19.37 15.5875L18.8237 48.4132C18.8237 49.1712 19.1248 49.8981 19.6608 50.4341C20.1968 50.9701 20.9237 51.2712 21.6817 51.2712H33.1137C33.8717 51.2712 34.5986 50.9701 35.1346 50.4341C35.6706 49.8981 35.9717 49.1712 35.9717 48.4132L36.5179 29.8775H32.6975C31.3794 30.9422 29.6944 31.4438 28.0086 31.273C26.3229 31.1023 24.7726 30.2732 23.6948 28.9658C22.9878 28.1089 22.5149 27.0834 22.3221 25.9893C22.1293 24.8953 22.2232 23.7699 22.5948 22.7229C22.9663 21.676 23.6027 20.7431 24.442 20.0153C25.2812 19.2874 26.2948 18.7894 27.3838 18.5698C27.8037 18.4877 28.2305 18.4461 28.6584 18.4455C30.129 18.4424 31.5555 18.9472 32.6968 19.8745H36.5179V15.5875C36.5179 14.8295 36.2168 14.1026 35.6808 13.5666C35.1448 13.0306 34.4179 12.7295 33.6599 12.7295ZM27.3977 36.2667C28.0258 36.2637 28.6373 36.4688 29.1367 36.8497C29.6361 37.2307 29.9953 37.7662 30.1585 38.3728C30.3216 38.9794 30.2795 39.6229 30.0386 40.203C29.7977 40.7831 29.3715 41.2672 28.8267 41.5797V44.8407C28.8267 45.0302 28.7514 45.2119 28.6174 45.3459C28.4834 45.4799 28.3017 45.5552 28.1122 45.5552H26.6832C26.4937 45.5552 26.312 45.4799 26.178 45.3459C26.044 45.2119 25.9687 45.0302 25.9687 44.8407V41.5797C25.4239 41.2672 24.9978 40.7831 24.7569 40.203C24.5159 39.6229 24.4738 38.9794 24.6369 38.3728C24.8001 37.7662 25.1594 37.2307 25.6588 36.8497C26.1581 36.4688 26.7696 36.2637 27.3977 36.2667Z" fill="white"/>
</svg>
